<?xml version="1.0" encoding="utf-8"?>
<!-- Generator: Adobe Illustrator 15.1.0, SVG Export Plug-In . SVG Version: 6.00 Build 0)  -->
<!DOCTYPE svg PUBLIC "-//W3C//DTD SVG 1.1//EN" "http://www.w3.org/Graphics/SVG/1.1/DTD/svg11.dtd">
<svg version="1.1" id="Layer_1" xmlns="http://www.w3.org/2000/svg" xmlns:xlink="http://www.w3.org/1999/xlink" x="0px" y="0px"
	 width="1470px" height="131px" viewBox="0.07 0.05 1470 131" enable-background="new 0.07 0.05 1470 131" xml:space="preserve">
<g id="Layer_1_1_">
	<path d="M-3.691-1.95v133h1263.062c-0.854-0.603-1.645-1.243-2.352-1.918c-6.306-6.097-6.392-13.178-6.573-19.814V71.661h20.172
		v39.541c0,2.689,0.092,5.469,2.343,7.619c1.619,1.704,4.054,2.331,6.393,2.331c3.15,0,5.225-1.166,6.395-2.239
		c2.34-2.242,2.431-5.021,2.431-7.711V71.661h20.261v33.711c0,7.261,0,16.677-7.474,23.759c-0.714,0.669-1.502,1.31-2.353,1.918
		h30.207c-8.892-6.38-13.07-17.041-13.07-27.383c0-17.034,11.439-34.339,32.958-34.339c9.637,0,18.819,3.408,25.485,10.224
		c2.701,2.779,3.965,4.93,5.312,7.438l-16.838,8.341c-1.623-3.769-4.684-10.492-13.149-10.492c-4.413,0-7.204,2.062-8.554,3.408
		c-4.774,4.57-4.774,11.743-4.774,14.259c0,9.411,3.516,18.289,13.42,18.289c9.366,0,12.157-8.25,12.88-10.401l17.107,8.249
		c-1.622,3.048-3.15,5.916-6.213,8.965c-1.312,1.287-2.735,2.43-4.238,3.442h18.501V71.571h20.078v46.748h26.059v12.731h36.286v-133
		H-3.691z"/>
</g>
<g id="Layer_3" display="none">
	<g display="inline">
		<path fill="none" d="M955.457,45.229V43.4h-0.533c0-4.901-4.389-5.852-4.389-5.852l-0.008-0.887l-0.465-0.781l-0.004-1.682
			l-0.643-0.81c-0.008-0.008,0.025-0.443,0.025-0.443c0,0.005,0-0.147,0-0.272h-0.418c0,0.125,0,0.277,0,0.272
			c0,0,0.031,0.437,0.025,0.443l-0.643,0.81l-0.002,1.682l-0.463,0.781l-0.014,0.887c0,0-4.381,0.949-4.381,5.852h-0.537v1.828
			l6.223-1.223L955.457,45.229z"/>
		<path fill="none" d="M961.384,60.213v-1.842h-2.145V49.65h1.48l0.309-1.569l0.047-0.384l-11.77-2.524l-11.775,2.516l0.045,0.394
			l0.307,1.569h1.26v8.722h-2.365l0.008,1.842h-0.975l0.01,1.873h26.812v-1.873L961.384,60.213L961.384,60.213z M944.851,58.371
			h-2.83V49.65h2.83V58.371z M950.556,58.371h-2.83V49.65h2.83V58.371z M956.359,58.371h-2.926V49.65h2.926V58.371z"/>
	</g>
</g>
<g id="Layer_2" display="none">
	<g display="inline">
		
			<line fill="none" stroke="#000000" stroke-width="0.0747" stroke-linecap="round" stroke-linejoin="round" x1="944.419" y1="43.183" x2="944.419" y2="43.058"/>
		<polyline fill="#FFFFFF" stroke="#000000" stroke-width="0.0747" stroke-linecap="round" stroke-linejoin="round" points="
			962.275,48.179 949.759,48.179 937.246,48.179 		"/>
		<path fill="#FFFFFF" stroke="#000000" stroke-width="0.0747" stroke-linecap="round" stroke-linejoin="round" d="M955.496,44.188"
			/>
		<path fill="#FFFFFF" d="M955.464,43.87v-0.21c0-0.039,0.01-0.066,0.029-0.08c0.021-0.01,0.031-0.025,0.031-0.045
			c0-0.021-0.018-0.03-0.045-0.03c-0.031,0-0.051,0.003-0.057,0.01c-0.01,0.006-0.062,0.01-0.158,0.01v-0.209
			c0-0.04,0.008-0.065,0.025-0.079c0.012-0.01,0.018-0.024,0.018-0.045c0-0.016-0.012-0.024-0.033-0.024
			c-0.023,0-0.037,0.002-0.045,0.005c-0.008,0.007-0.051,0.01-0.131,0.01v-0.125c0-0.04,0.01-0.064,0.025-0.075
			c0.018-0.013,0.025-0.028,0.025-0.045c0-0.02-0.014-0.029-0.035-0.029c-0.023,0-0.039,0.003-0.049,0.01
			c-0.008,0.003-0.049,0.005-0.125,0.005c0-0.612-0.033-1.066-0.102-1.365c-0.066-0.299-0.148-0.59-0.248-0.872
			c-0.1-0.278-0.207-0.519-0.324-0.717c-0.115-0.203-0.268-0.424-0.447-0.663c-0.188-0.24-0.355-0.434-0.504-0.583
			c-0.148-0.148-0.312-0.301-0.494-0.453c-0.182-0.148-0.309-0.245-0.377-0.284c-0.07-0.04-0.082-0.1-0.035-0.179
			c0.047-0.08,0.016-0.12-0.09-0.12c-0.107,0-0.189-0.018-0.248-0.054c-0.062-0.034-0.15-0.085-0.271-0.155
			c-0.121-0.069-0.178-0.143-0.178-0.219s-0.025-0.105-0.076-0.085c-0.053,0.023-0.133,0.019-0.244-0.015
			c-0.109-0.03-0.203-0.085-0.285-0.165c-0.076-0.08-0.127-0.175-0.148-0.284c-0.02-0.109-0.012-0.194,0.021-0.254
			c0.035-0.061,0.07-0.089,0.104-0.089c0.035,0,0.049-0.021,0.039-0.061c-0.01-0.04-0.08-0.098-0.209-0.174
			c-0.129-0.073-0.199-0.124-0.209-0.149c-0.01-0.023-0.016-0.062-0.016-0.114c0-0.051-0.02-0.084-0.061-0.104v-0.265v-1.086
			c0.033-0.061,0.043-0.101,0.025-0.119c-0.018-0.021-0.018-0.044,0-0.075c0.018-0.03,0.041-0.044,0.074-0.044
			s0.035-0.016,0.006-0.045c-0.029-0.03-0.047-0.07-0.047-0.119c0-0.05,0.021-0.095,0.061-0.135c0.041-0.04,0.061-0.089,0.061-0.149
			c0-0.06-0.016-0.09-0.045-0.09s-0.059,0.008-0.09,0.025c-0.029,0.017-0.059,0.017-0.09,0c-0.029-0.018-0.066-0.061-0.109-0.13
			c-0.039-0.069-0.059-0.126-0.059-0.17c0-0.039-0.016-0.06-0.045-0.06s-0.061,0-0.09,0s-0.07-0.05-0.119-0.149
			c-0.051-0.099-0.076-0.164-0.076-0.193c0-0.03-0.033-0.065-0.104-0.105c-0.066-0.04-0.137-0.269-0.137-0.269
			s-0.062,0.229-0.133,0.269s-0.105,0.075-0.105,0.105c0,0.029-0.023,0.094-0.074,0.193c-0.049,0.101-0.09,0.149-0.119,0.149
			s-0.061,0-0.09,0s-0.045,0.021-0.045,0.06c0,0.044-0.02,0.101-0.059,0.17c-0.041,0.069-0.076,0.112-0.105,0.13
			c-0.033,0.017-0.064,0.017-0.096,0c-0.029-0.018-0.059-0.025-0.09-0.025c-0.029,0-0.043,0.03-0.043,0.09
			c0,0.061,0.02,0.11,0.061,0.149c0.039,0.039,0.059,0.084,0.059,0.135c0,0.049-0.014,0.089-0.043,0.119
			c-0.031,0.03-0.029,0.045,0.004,0.045s0.057,0.014,0.074,0.044s0.018,0.055,0,0.075c-0.018,0.02-0.008,0.06,0.025,0.119v1.351
			c-0.039,0.021-0.061,0.055-0.061,0.104c0,0.053-0.004,0.091-0.014,0.114c-0.012,0.025-0.08,0.076-0.209,0.149
			c-0.129,0.076-0.199,0.134-0.209,0.174s0.004,0.061,0.041,0.061c0.031,0,0.066,0.029,0.104,0.089
			c0.033,0.06,0.039,0.145,0.02,0.254s-0.07,0.205-0.148,0.284c-0.08,0.078-0.174,0.134-0.285,0.165
			c-0.109,0.032-0.188,0.039-0.238,0.015c-0.051-0.021-0.074,0.009-0.074,0.085s-0.062,0.149-0.186,0.219
			c-0.121,0.07-0.209,0.121-0.27,0.155c-0.061,0.036-0.143,0.054-0.248,0.054c-0.107,0-0.137,0.04-0.09,0.12
			c0.045,0.08,0.033,0.14-0.035,0.179c-0.07,0.04-0.195,0.136-0.373,0.284c-0.184,0.152-0.35,0.305-0.5,0.453
			c-0.15,0.149-0.316,0.343-0.498,0.583c-0.188,0.239-0.338,0.46-0.453,0.663c-0.117,0.199-0.225,0.438-0.324,0.717
			c-0.1,0.282-0.184,0.573-0.25,0.872c-0.062,0.299-0.094,1.365-0.094,1.365c-0.08,0-0.125-0.002-0.129-0.005
			c-0.008-0.007-0.023-0.01-0.047-0.01s-0.033,0.01-0.033,0.029c0,0.017,0.006,0.032,0.02,0.045
			c0.016,0.011,0.023,0.035,0.023,0.075v0.125c-0.08,0-0.123-0.003-0.129-0.01c-0.006-0.003-0.021-0.005-0.043-0.005
			c-0.023,0-0.037,0.009-0.037,0.024c0,0.021,0.008,0.035,0.02,0.045c0.018,0.014,0.025,0.04,0.025,0.079v0.209
			c-0.096,0-0.146-0.003-0.154-0.01c-0.01-0.007-0.027-0.01-0.059-0.01c-0.027,0-0.041,0.01-0.041,0.03
			c0,0.02,0.008,0.035,0.025,0.045c0.021,0.014,0.029,0.041,0.029,0.08v0.209h-0.328c0,0.02,0.01,0.029,0.029,0.029
			c0.021,0,0.045,0.01,0.076,0.025c0.029,0.017,0.049,0.032,0.059,0.045c0.008,0.014,0.01,0.03,0.01,0.05
			c0,0.021-0.002,0.03-0.01,0.03c-0.01,0-0.023,0.005-0.045,0.016c-0.02,0.01-0.027,0.021-0.025,0.029
			c0.004,0.01,0.014,0.015,0.031,0.015c0.016,0,0.041,0,0.074,0c0.029,0,0.061,0.021,0.09,0.061s0.045,0.07,0.045,0.089
			c0,0.02-0.004,0.03-0.016,0.03c-0.01,0-0.02,0.005-0.029,0.015s-0.016,0.021-0.016,0.03s0.031,0.024,0.09,0.045v0.842
			c-0.037,0.021-0.066,0.035-0.09,0.044c-0.02,0.01-0.029,0.021-0.029,0.03s0.01,0.015,0.029,0.015c0.021,0,0.031,0.016,0.031,0.045
			c0,0.03-0.016,0.064-0.045,0.104c-0.031,0.04-0.078,0.06-0.141,0.06v1.21l11.828-0.093v-1.117c-0.061,0-0.105-0.02-0.135-0.06
			c-0.031-0.04-0.045-0.075-0.045-0.104c0-0.028,0.01-0.045,0.029-0.045c0.021,0,0.031-0.005,0.031-0.015s-0.014-0.021-0.037-0.03
			c-0.021-0.01-0.051-0.025-0.084-0.044v-0.842c0.01-0.003,0.02-0.006,0.027-0.009c0.041-0.017,0.062-0.027,0.062-0.036
			c0-0.01-0.006-0.021-0.018-0.03c-0.008-0.01-0.018-0.015-0.027-0.015c-0.012,0-0.016-0.011-0.016-0.03
			c0-0.021,0.016-0.05,0.043-0.089c0.031-0.04,0.061-0.061,0.092-0.061c0.029,0,0.055,0,0.068,0c0.018,0,0.027-0.005,0.031-0.015
			c0.002-0.01-0.006-0.02-0.025-0.029s-0.031-0.016-0.041-0.016s-0.016-0.01-0.016-0.03c0-0.02,0.006-0.036,0.016-0.05
			c0.01-0.013,0.025-0.028,0.057-0.045c0.029-0.016,0.055-0.025,0.074-0.025s0.029-0.01,0.029-0.029L955.464,43.87L955.464,43.87z"
			/>
		<path fill="#FFFFFF" d="M953.103,59.19c-0.066-0.01-0.109-0.024-0.129-0.045c-0.016-0.02-0.023-0.042-0.023-0.064
			c0-0.023-0.027-0.043-0.078-0.061c-0.051-0.016-0.094-0.055-0.127-0.113v-1.262V54.76l-0.104-3.388
			c0.104-0.04,0.137-0.07,0.104-0.09c-0.035-0.021-0.062-0.049-0.078-0.086c-0.018-0.035-0.008-0.07,0.027-0.104
			c0.031-0.036,0.066-0.064,0.102-0.084s0.033-0.035,0-0.045c-0.035-0.01-0.078-0.025-0.129-0.045
			c-0.051-0.021-0.018-0.064,0.104-0.134c0.121-0.07,0.205-0.105,0.258-0.105c0.051,0,0.057-0.015,0.018-0.044
			c-0.041-0.03-0.041-0.065,0-0.104c0.039-0.04,0.053-0.075,0.041-0.104s-0.035-0.064-0.076-0.104
			c-0.041-0.04-0.025-0.061,0.043-0.061s0.137-0.03,0.205-0.089h-2.561c0.068,0.06,0.137,0.089,0.207,0.089
			c0.066,0,0.08,0.021,0.043,0.061c-0.041,0.039-0.066,0.074-0.078,0.104c-0.014,0.03,0.002,0.065,0.043,0.104s0.041,0.074,0,0.104
			s-0.035,0.044,0.018,0.044c0.051,0,0.135,0.035,0.256,0.105c0.121,0.069,0.154,0.113,0.105,0.134
			c-0.053,0.02-0.096,0.035-0.129,0.045c-0.035,0.01-0.035,0.025,0,0.045c0.033,0.02,0.066,0.048,0.102,0.084
			c0.035,0.034,0.043,0.068,0.027,0.104c-0.02,0.037-0.045,0.065-0.078,0.086c-0.035,0.02,0,0.05,0.104,0.09l-0.104,3.388v2.885
			v1.262c-0.035,0.06-0.078,0.098-0.129,0.113c-0.051,0.018-0.076,0.037-0.076,0.061c0,0.022-0.008,0.045-0.025,0.064
			c-0.018,0.021-0.062,0.035-0.129,0.045c-0.068,0.011-0.104,0.055-0.104,0.136h2.459C953.207,59.245,953.173,59.2,953.103,59.19z"
			/>
		<path fill="#FFFFFF" d="M957.507,59.19c-0.066-0.01-0.111-0.024-0.129-0.045c-0.018-0.02-0.025-0.042-0.025-0.064
			c0-0.023-0.023-0.043-0.076-0.061c-0.053-0.016-0.096-0.055-0.129-0.113v-1.262V54.76l-0.104-3.388
			c0.104-0.04,0.137-0.07,0.104-0.09c-0.033-0.021-0.061-0.049-0.076-0.086c-0.018-0.035-0.01-0.07,0.025-0.104
			c0.033-0.036,0.068-0.064,0.104-0.084c0.031-0.02,0.031-0.035,0-0.045c-0.035-0.01-0.078-0.025-0.129-0.045
			c-0.053-0.021-0.018-0.064,0.102-0.134c0.121-0.07,0.207-0.105,0.258-0.105c0.053,0,0.059-0.015,0.018-0.044
			c-0.039-0.03-0.039-0.065,0-0.104c0.041-0.04,0.055-0.075,0.045-0.104c-0.014-0.03-0.039-0.064-0.08-0.104
			c-0.039-0.04-0.023-0.061,0.045-0.061s0.137-0.03,0.205-0.089h-2.564c0.07,0.06,0.139,0.089,0.207,0.089
			c0.074,0,0.09,0.021,0.053,0.061c-0.041,0.039-0.066,0.074-0.078,0.104c-0.018,0.03-0.006,0.065,0.033,0.104s0.039,0.074,0,0.104
			s-0.033,0.044,0.018,0.044c0.059,0,0.146,0.035,0.268,0.105c0.119,0.069,0.152,0.113,0.102,0.134
			c-0.051,0.02-0.094,0.035-0.127,0.045c-0.035,0.01-0.035,0.025,0,0.045c0.033,0.02,0.066,0.048,0.102,0.084
			c0.035,0.034,0.043,0.068,0.025,0.104c-0.018,0.037-0.043,0.065-0.076,0.086c-0.033,0.02,0,0.05,0.104,0.09l-0.104,3.388v2.885
			v1.262c-0.033,0.06-0.076,0.098-0.129,0.113c-0.051,0.018-0.076,0.037-0.076,0.061c0,0.022-0.012,0.045-0.035,0.064
			c-0.018,0.021-0.059,0.035-0.129,0.045c-0.068,0.011-0.104,0.055-0.104,0.136h2.461C957.611,59.245,957.576,59.2,957.507,59.19z"
			/>
		<path fill="#FFFFFF" d="M948.691,59.19c-0.068-0.01-0.111-0.024-0.129-0.045c-0.016-0.02-0.023-0.042-0.023-0.064
			c0-0.023-0.027-0.043-0.078-0.061c-0.051-0.016-0.094-0.055-0.129-0.113v-1.262V54.76l-0.104-3.388
			c0.104-0.04,0.139-0.07,0.104-0.09c-0.033-0.021-0.061-0.049-0.076-0.086c-0.018-0.035-0.01-0.07,0.025-0.104
			c0.033-0.036,0.068-0.064,0.104-0.084c0.033-0.02,0.033-0.035,0-0.045c-0.035-0.01-0.078-0.025-0.129-0.045
			c-0.051-0.021-0.018-0.064,0.102-0.134c0.121-0.07,0.207-0.105,0.258-0.105c0.053,0,0.057-0.015,0.018-0.044
			c-0.041-0.03-0.041-0.065,0-0.104c0.039-0.04,0.055-0.075,0.043-0.104c-0.012-0.03-0.037-0.064-0.078-0.104
			c-0.039-0.04-0.025-0.061,0.043-0.061s0.139-0.03,0.207-0.089h-2.562c0.068,0.06,0.137,0.089,0.207,0.089
			c0.068,0,0.082,0.021,0.041,0.061c-0.041,0.039-0.064,0.074-0.076,0.104c-0.012,0.03,0.002,0.065,0.043,0.104
			c0.039,0.039,0.039,0.074,0,0.104c-0.041,0.03-0.035,0.044,0.018,0.044c0.051,0,0.137,0.035,0.258,0.105
			c0.119,0.069,0.152,0.113,0.102,0.134c-0.051,0.02-0.094,0.035-0.127,0.045c-0.035,0.01-0.035,0.025,0,0.045
			c0.033,0.02,0.068,0.048,0.102,0.084c0.035,0.034,0.045,0.068,0.027,0.104c-0.018,0.037-0.043,0.065-0.078,0.086
			c-0.033,0.02,0,0.05,0.104,0.09L946.8,54.76v2.885v1.262c-0.033,0.06-0.076,0.098-0.127,0.113
			c-0.051,0.018-0.078,0.037-0.078,0.061c0,0.022-0.008,0.045-0.023,0.064c-0.018,0.021-0.062,0.035-0.129,0.045
			c-0.068,0.011-0.104,0.055-0.104,0.136h2.459C948.794,59.245,948.759,59.2,948.691,59.19z"/>
		<path fill="#FFFFFF" d="M944.289,59.19c-0.068-0.01-0.113-0.024-0.129-0.045c-0.018-0.02-0.025-0.042-0.025-0.064
			c0-0.023-0.025-0.043-0.078-0.061c-0.051-0.016-0.094-0.055-0.127-0.113v-1.262V54.76l-0.104-3.388
			c0.104-0.04,0.137-0.07,0.104-0.09c-0.035-0.021-0.061-0.049-0.078-0.086c-0.016-0.035-0.008-0.07,0.025-0.104
			c0.035-0.036,0.07-0.064,0.104-0.084s0.033-0.035,0-0.045s-0.076-0.025-0.129-0.045c-0.051-0.021-0.016-0.064,0.104-0.134
			c0.121-0.07,0.207-0.105,0.258-0.105s0.057-0.015,0.018-0.044c-0.041-0.03-0.041-0.065,0-0.104
			c0.039-0.04,0.053-0.075,0.043-0.104c-0.014-0.03-0.037-0.064-0.078-0.104c-0.039-0.04-0.025-0.061,0.043-0.061
			s0.137-0.03,0.205-0.089h-2.562c0.07,0.06,0.139,0.089,0.207,0.089s0.082,0.021,0.043,0.061c-0.041,0.039-0.066,0.074-0.078,0.104
			c-0.012,0.03,0.002,0.065,0.043,0.104s0.041,0.074,0,0.104s-0.033,0.044,0.018,0.044s0.137,0.035,0.256,0.105
			c0.121,0.069,0.154,0.113,0.104,0.134c-0.051,0.02-0.094,0.035-0.129,0.045c-0.033,0.01-0.033,0.025,0,0.045
			c0.035,0.02,0.07,0.048,0.104,0.084c0.035,0.034,0.043,0.068,0.025,0.104c-0.018,0.037-0.041,0.065-0.076,0.086
			c-0.035,0.02,0,0.05,0.102,0.09l-0.102,3.388v2.885v1.262c-0.035,0.06-0.078,0.098-0.129,0.113
			c-0.053,0.018-0.076,0.037-0.076,0.061c0,0.022-0.008,0.045-0.027,0.064c-0.016,0.021-0.059,0.035-0.127,0.045
			c-0.068,0.011-0.104,0.055-0.104,0.136h2.459C944.39,59.245,944.357,59.2,944.289,59.19z"/>
		<path fill="#FFFFFF" d="M939.884,59.19c-0.068-0.01-0.111-0.024-0.129-0.045c-0.018-0.02-0.025-0.042-0.025-0.064
			c0-0.023-0.027-0.043-0.086-0.061c-0.051-0.016-0.094-0.055-0.129-0.113v-1.262V54.76l-0.102-3.388
			c0.102-0.04,0.137-0.07,0.102-0.09c-0.033-0.021-0.059-0.049-0.076-0.086c-0.018-0.035-0.01-0.07,0.025-0.104
			c0.033-0.036,0.068-0.064,0.104-0.084c0.033-0.02,0.033-0.035,0-0.045c-0.035-0.01-0.078-0.025-0.129-0.045
			c-0.053-0.021-0.018-0.064,0.104-0.134c0.125-0.07,0.213-0.105,0.266-0.105s0.057-0.015,0.018-0.044
			c-0.041-0.03-0.041-0.065,0-0.104c0.039-0.04,0.055-0.075,0.043-0.104c-0.018-0.03-0.045-0.064-0.086-0.104
			c-0.035-0.04-0.018-0.061,0.051-0.061c0.07,0,0.137-0.03,0.207-0.089h-1.215h-0.883h-0.455h-0.01
			c0.068,0.06,0.137,0.089,0.205,0.089s0.084,0.021,0.043,0.061c-0.041,0.039-0.064,0.074-0.078,0.104
			c-0.01,0.03,0.002,0.065,0.043,0.104s0.041,0.074,0,0.104s-0.033,0.044,0.018,0.044c0.053,0,0.137,0.035,0.258,0.105
			c0.119,0.069,0.154,0.113,0.104,0.134c-0.053,0.02-0.096,0.035-0.131,0.045c-0.033,0.01-0.033,0.025,0,0.045
			c0.035,0.02,0.07,0.048,0.104,0.084c0.035,0.034,0.043,0.068,0.027,0.104c-0.018,0.037-0.043,0.065-0.078,0.086
			c-0.035,0.02,0,0.05,0.104,0.09l-0.104,3.388v2.885v1.262c-0.035,0.06-0.076,0.098-0.127,0.113
			c-0.053,0.018-0.078,0.037-0.078,0.061c0,0.022-0.008,0.045-0.025,0.064c-0.018,0.021-0.061,0.035-0.129,0.045
			c-0.068,0.011-0.102,0.055-0.102,0.136h2.459C939.988,59.245,939.953,59.2,939.884,59.19z"/>
		<path fill="#FFFFFF" d="M961.912,59.19c-0.068-0.01-0.111-0.024-0.129-0.045c-0.018-0.02-0.025-0.042-0.025-0.064
			c0-0.023-0.025-0.043-0.078-0.061c-0.051-0.016-0.094-0.055-0.129-0.113v-1.262V54.76l-0.102-3.388
			c0.102-0.04,0.137-0.07,0.102-0.09c-0.033-0.021-0.059-0.049-0.076-0.086c-0.018-0.035-0.008-0.07,0.025-0.104
			c0.035-0.036,0.068-0.064,0.104-0.084s0.035-0.035,0-0.045c-0.033-0.01-0.076-0.025-0.129-0.045
			c-0.051-0.021-0.018-0.064,0.105-0.134c0.119-0.07,0.205-0.105,0.256-0.105s0.057-0.015,0.018-0.044
			c-0.039-0.03-0.039-0.065,0-0.104c0.039-0.04,0.055-0.075,0.043-0.104c-0.012-0.03-0.037-0.064-0.076-0.104
			c-0.041-0.04-0.027-0.061,0.041-0.061s0.139-0.03,0.207-0.089h-2.555c0.068,0.06,0.139,0.089,0.207,0.089
			c0.066,0,0.082,0.021,0.041,0.061c-0.039,0.039-0.064,0.074-0.076,0.104c-0.012,0.03,0.004,0.065,0.043,0.104s0.039,0.074,0,0.104
			s-0.035,0.044,0.018,0.044c0.051,0,0.139,0.035,0.256,0.105c0.121,0.069,0.154,0.113,0.105,0.134
			c-0.053,0.02-0.096,0.035-0.129,0.045s-0.033,0.025,0,0.045s0.068,0.048,0.104,0.084c0.033,0.034,0.043,0.068,0.025,0.104
			c-0.018,0.037-0.043,0.065-0.076,0.086c-0.035,0.02,0,0.05,0.102,0.09l-0.102,3.388v2.885v1.262
			c-0.035,0.06-0.08,0.098-0.131,0.113c-0.051,0.018-0.076,0.037-0.076,0.061c0,0.022-0.008,0.045-0.025,0.064
			c-0.018,0.021-0.061,0.035-0.129,0.045c-0.068,0.011-0.104,0.055-0.104,0.136h2.451C962.015,59.245,961.98,59.2,961.912,59.19z"/>
		<path fill="#FFFFFF" d="M962.664,60.197v-0.304l-0.061-0.24h-0.299v-0.179h-0.299v-0.05v-0.1l0,0h-1.809h-1.432h-1.809h-1.436
			h-1.803h-1.438h-1.809h-1.43h-1.809H945.8h-1.809h-1.43h-1.809h-1.432h-1.809l0,0v0.113v0.036h-0.299v0.179h-0.299l-0.061,0.24
			v0.304h-0.447c0,0.061,0.014,0.099,0.045,0.114c0.027,0.018,0.045,0.046,0.045,0.09c0,0.043,0.014,0.065,0.045,0.065
			c0.029,0,0.055,0.01,0.074,0.029c0.02,0.021,0.029,0.06,0.029,0.12v3.089h13.113h13.113v-3.089c0-0.061,0.01-0.101,0.029-0.12
			c0.02-0.021,0.047-0.029,0.08-0.029c0.029,0,0.045-0.022,0.045-0.065s0.014-0.072,0.045-0.09c0.027-0.017,0.045-0.054,0.045-0.114
			H962.664z"/>
		<path fill="#FFFFFF" d="M939.361,50.172h1.354h1.885h1.355h1.883h0.682h0.68h1.885h1.354h1.885h1.361h1.877h1.361h1.883h1.355
			h1.463h0.08c0-0.14,0.006-0.219,0.02-0.239c0.012-0.02,0.021-0.047,0.029-0.08c0.01-0.029,0.016-0.068,0.016-0.119
			c0-0.05,0.016-0.085,0.045-0.104c0.031-0.021,0.051-0.036,0.061-0.045c0.01-0.01,0.016-0.025,0.016-0.044
			c0-0.021-0.016-0.03-0.045-0.03c-0.031,0-0.055-0.005-0.074-0.015c-0.021-0.011-0.029-0.104-0.029-0.284
			c0-0.179,0.006-0.284,0.014-0.313c0.01-0.029,0.031-0.06,0.061-0.09c0.031-0.03,0.064-0.045,0.105-0.045
			c0.039,0,0.059-0.026,0.059-0.08c0-0.05,0.006-0.1,0.018-0.148c0.01-0.051,0.033-0.078,0.072-0.084
			c0.041-0.008,0.074-0.002,0.105,0.015c0.031,0.016,0.055,0.015,0.074-0.005c0.021-0.021,0.02-0.045-0.004-0.075
			s-0.023-0.063,0-0.104s0.033-0.066,0.033-0.08c0-0.015,0-0.043,0-0.09s0.012-0.074,0.029-0.085
			c0.021-0.01,0.057-0.015,0.105-0.015s0.072-0.032,0.068-0.095l-12.719-2.576l-12.719,2.576c-0.004,0.062,0.02,0.095,0.068,0.095
			c0.051,0,0.084,0.004,0.105,0.015c0.02,0.011,0.029,0.038,0.029,0.085s0,0.076,0,0.09c0,0.013,0.012,0.04,0.035,0.08
			s0.023,0.074,0,0.104c-0.023,0.03-0.023,0.055-0.004,0.075c0.02,0.02,0.043,0.021,0.074,0.005
			c0.029-0.017,0.064-0.021,0.105-0.015c0.039,0.006,0.062,0.033,0.074,0.084c0.01,0.05,0.016,0.1,0.016,0.148
			c0,0.053,0.02,0.08,0.064,0.08c0.039,0,0.074,0.015,0.104,0.045c0.031,0.03,0.051,0.061,0.061,0.09s0.016,0.135,0.016,0.313
			c0,0.18-0.012,0.273-0.031,0.284c-0.02,0.01-0.045,0.015-0.074,0.015c-0.031,0-0.045,0.009-0.045,0.03
			c0,0.02,0.004,0.034,0.014,0.044c0.012,0.009,0.031,0.024,0.061,0.045c0.031,0.02,0.045,0.055,0.045,0.104
			c0,0.05,0.006,0.09,0.016,0.119c0.01,0.033,0.021,0.061,0.029,0.08c0.01,0.021,0.016,0.1,0.016,0.239h0.648H939.361z"/>
		<path fill="#FFFFFF" stroke="#000000" stroke-width="0.084" stroke-linecap="round" stroke-linejoin="round" d="M937.787,50.172"
			/>
	</g>
</g>
<g id="Layer_4">
	<g>
		<path fill="#FFFFFF" d="M1242.126,85.883c-0.039-0.008-10.875-2.336-10.875-2.336s-10.85,2.332-10.871,2.336
			c-0.059,0.012-0.039,0.062-0.039,0.062l0.15,0.557l0.031-0.001l-0.006,0.001c0,0,0.168-0.021,0.268,0.134l0.162,0.894
			c0,0,0.004,0.062,0.066,0.062c0.066,0,0.395,0,0.395,0h19.688c0,0,0.342,0,0.396,0s0.061-0.046,0.061-0.046l0.162-0.895
			c0.094-0.175,0.275-0.15,0.275-0.15l-0.004-0.001l0.027,0.001l0.15-0.557C1242.166,85.945,1242.187,85.895,1242.126,85.883z"/>
		<path fill="#FFFFFF" d="M1240.99,87.879c0.012,0,0.021-0.009,0.021-0.024v-0.276c0-0.015-0.012-0.002-0.021-0.002h-1.652
			c-0.012,0-0.025-0.013-0.025,0.002v0.276c0,0.016,0.014,0.024,0.025,0.024l0.07,0.001c0.031,0,0.035,0.033,0.035,0.064
			c0,0.042,0.018,0.257,0.168,0.387c0.02,0.019,0.016,0.07-0.031,0.07c-0.004,0-0.047,0-0.051,0c-0.037,0-0.039,0.025-0.027,0.045
			c0.014,0.025,0.018,0.099,0.018,0.133c0,0.035,0,0.096,0,0.121c0,0.021,0.002,0.04,0.023,0.04c0.002,0,0.021,0,0.023,0
			c0,0,0.018-0.003,0.018,0.018c0,0.016,0,0.024,0,0.024v6.075c-0.02,0.02-0.082,0.084-0.088,0.088
			c-0.004,0.006-0.012,0.014-0.012,0.022v0.103c0,0.008-0.002,0.019-0.008,0.022c-0.004,0.005-0.014,0.007-0.021,0.007h-0.076
			c-0.016,0-0.025,0.012-0.025,0.025c0,0,0,0.169,0,0.176h1.619c0-0.006,0-0.176,0-0.176c0-0.014-0.012-0.025-0.023-0.025h-0.076
			c-0.01,0-0.018-0.002-0.023-0.007c-0.004-0.004-0.008-0.015-0.008-0.022V94.97c0-0.008-0.002-0.014-0.01-0.021
			c-0.01-0.009-0.062-0.062-0.088-0.09v-6.075c0,0,0-0.009,0-0.024c0-0.02,0.016-0.018,0.016-0.018c0.002,0,0.021,0,0.023,0
			c0.021,0,0.025-0.019,0.025-0.04c0-0.024,0-0.086,0-0.121c0-0.034,0.006-0.107,0.018-0.132c0.014-0.021,0.01-0.046-0.029-0.046
			c-0.002,0-0.047,0-0.049,0c-0.047,0-0.053-0.053-0.033-0.07c0.152-0.124,0.168-0.34,0.168-0.381c0-0.037-0.002-0.07,0.039-0.07
			L1240.99,87.879z"/>
		<path fill="#FFFFFF" d="M1237.427,87.879c0.012,0,0.023-0.009,0.023-0.024v-0.276c0-0.015-0.014-0.002-0.023-0.002h-1.654
			c-0.014,0-0.023-0.013-0.023,0.002v0.276c0,0.016,0.01,0.024,0.023,0.024l0.072,0.001c0.031,0,0.033,0.033,0.033,0.064
			c0,0.042,0.02,0.257,0.168,0.387c0.02,0.019,0.014,0.07-0.029,0.07c-0.004,0-0.049,0-0.051,0c-0.039,0-0.043,0.025-0.031,0.045
			c0.016,0.025,0.018,0.099,0.018,0.133c0,0.035,0,0.096,0,0.121c0,0.021,0.004,0.04,0.025,0.04h0.023c0,0,0.018-0.003,0.018,0.018
			c0,0.016,0.002,0.024,0.002,0.024v6.075c-0.02,0.02-0.086,0.084-0.09,0.088c-0.006,0.006-0.01,0.014-0.01,0.022v0.103
			c0,0.008,0,0.019-0.01,0.022c-0.004,0.005-0.012,0.007-0.02,0.007h-0.078c-0.012,0-0.021,0.012-0.021,0.025c0,0,0,0.169,0,0.176
			h1.615c0-0.006,0-0.176,0-0.176c0-0.014-0.012-0.025-0.023-0.025h-0.076c-0.01,0-0.02-0.002-0.023-0.007
			c-0.006-0.004-0.008-0.015-0.008-0.022V94.97c0-0.008-0.002-0.014-0.01-0.021c-0.008-0.009-0.061-0.062-0.088-0.09v-6.075
			c0,0,0-0.009,0-0.024c0-0.02,0.018-0.018,0.018-0.018c0.002,0,0.021,0,0.021,0c0.021,0,0.023-0.019,0.023-0.04
			c0-0.024,0-0.086,0-0.121c0-0.034,0.008-0.107,0.021-0.132c0.01-0.021,0.006-0.046-0.031-0.046c-0.002,0-0.045,0-0.049,0
			c-0.047,0-0.053-0.053-0.031-0.07c0.152-0.124,0.168-0.34,0.168-0.381c0-0.037-0.002-0.07,0.037-0.07L1237.427,87.879z"/>
		<path fill="#FFFFFF" d="M1233.863,87.879c0.014,0,0.02-0.009,0.02-0.024v-0.276c0-0.015-0.008-0.002-0.02-0.002h-1.654
			c-0.014,0-0.023-0.013-0.023,0.002v0.276c0,0.016,0.01,0.024,0.023,0.024l0.072,0.001c0.029,0,0.031,0.033,0.031,0.064
			c0,0.042,0.021,0.257,0.172,0.387c0.02,0.019,0.012,0.07-0.031,0.07c-0.004,0-0.049,0-0.051,0c-0.039,0-0.041,0.025-0.029,0.045
			c0.014,0.025,0.018,0.099,0.018,0.133c0,0.035,0,0.096,0,0.121c0,0.021,0.002,0.04,0.021,0.04c0.002,0,0.023,0,0.023,0
			s0.021-0.003,0.021,0.018c0,0.016,0,0.024,0,0.024v6.075c-0.02,0.02-0.084,0.084-0.09,0.088c-0.006,0.006-0.012,0.014-0.012,0.022
			v0.103c0,0.008-0.002,0.019-0.006,0.022c-0.006,0.005-0.016,0.007-0.021,0.007h-0.076c-0.012,0-0.023,0.012-0.023,0.025
			c0,0,0,0.169,0,0.176h1.615c0-0.006,0-0.176,0-0.176c0-0.014-0.012-0.025-0.023-0.025h-0.076c-0.01,0-0.02-0.002-0.023-0.007
			c-0.004-0.004-0.008-0.015-0.008-0.022V94.97c0-0.008-0.002-0.014-0.008-0.021c-0.01-0.009-0.061-0.062-0.09-0.09v-6.075
			c0,0,0-0.009,0-0.024c0-0.02,0.018-0.018,0.018-0.018c0.002,0,0.021,0,0.021,0c0.023,0,0.025-0.019,0.025-0.04
			c0-0.024,0-0.086,0-0.121c0-0.034,0.006-0.107,0.021-0.132c0.01-0.021,0.01-0.046-0.029-0.046c-0.002,0-0.047,0-0.051,0
			c-0.047,0-0.055-0.053-0.029-0.07c0.15-0.124,0.164-0.34,0.164-0.381c0-0.037,0-0.07,0.039-0.07L1233.863,87.879z"/>
		<path fill="#FFFFFF" d="M1230.298,87.879c0.014,0,0.023-0.009,0.023-0.024v-0.276c0-0.015-0.012-0.002-0.023-0.002h-1.654
			c-0.014,0-0.021-0.013-0.021,0.002v0.276c0,0.016,0.008,0.024,0.021,0.024l0.07,0.001c0.033,0,0.035,0.033,0.035,0.064
			c0,0.042,0.02,0.257,0.17,0.387c0.02,0.019,0.012,0.07-0.031,0.07c-0.004,0-0.049,0-0.051,0c-0.039,0-0.041,0.025-0.029,0.045
			c0.014,0.025,0.018,0.099,0.018,0.133c0,0.035,0,0.096,0,0.121c0,0.021,0.002,0.04,0.025,0.04c0,0,0.021,0,0.023,0
			c0,0,0.018-0.003,0.018,0.018c0,0.016,0,0.024,0,0.024v6.075c-0.018,0.02-0.084,0.084-0.09,0.088
			c-0.004,0.006-0.008,0.014-0.008,0.022v0.103c0,0.008-0.002,0.019-0.01,0.022c-0.006,0.005-0.016,0.007-0.021,0.007h-0.076
			c-0.014,0-0.023,0.012-0.023,0.025c0,0,0,0.169,0,0.176h1.615c0-0.006,0-0.176,0-0.176c0-0.014-0.01-0.025-0.023-0.025h-0.076
			c-0.01,0-0.018-0.002-0.023-0.007c-0.004-0.004-0.006-0.015-0.006-0.022V94.97c0-0.008-0.002-0.014-0.01-0.021
			c-0.01-0.009-0.061-0.062-0.088-0.09v-6.075c0,0-0.002-0.009-0.002-0.024c0-0.02,0.018-0.018,0.018-0.018c0.002,0,0.021,0,0.023,0
			c0.02,0,0.023-0.019,0.023-0.04c0-0.024,0-0.086,0-0.121c0-0.034,0.006-0.107,0.02-0.132c0.012-0.021,0.008-0.046-0.029-0.046
			c-0.004,0-0.047,0-0.049,0c-0.049,0-0.055-0.053-0.033-0.07c0.152-0.124,0.168-0.34,0.168-0.381c0-0.037-0.002-0.07,0.037-0.07
			L1230.298,87.879z"/>
		<path fill="#FFFFFF" d="M1226.734,87.879c0.014,0,0.021-0.009,0.021-0.024v-0.276c0-0.015-0.01-0.002-0.021-0.002h-1.652
			c-0.014,0-0.023-0.013-0.023,0.002v0.276c0,0.016,0.01,0.024,0.023,0.024l0.068,0.001c0.033,0,0.035,0.033,0.035,0.064
			c0,0.042,0.021,0.257,0.172,0.387c0.02,0.019,0.012,0.07-0.033,0.07c-0.002,0-0.049,0-0.051,0c-0.039,0-0.041,0.025-0.029,0.045
			c0.014,0.025,0.018,0.099,0.018,0.133c0,0.035,0,0.096,0,0.121c0,0.021,0.002,0.04,0.025,0.04c0.002,0,0.02,0,0.021,0
			c0,0,0.02-0.003,0.02,0.018c0,0.016,0,0.024,0,0.024v6.075c-0.02,0.02-0.084,0.084-0.088,0.088
			c-0.008,0.006-0.012,0.014-0.012,0.022v0.103c0,0.008-0.002,0.019-0.008,0.022c-0.004,0.005-0.014,0.007-0.021,0.007h-0.074
			c-0.016,0-0.025,0.012-0.025,0.025c0,0,0,0.169,0,0.176h1.615c0-0.006,0-0.176,0-0.176c0-0.014-0.01-0.025-0.021-0.025h-0.078
			c-0.008,0-0.016-0.002-0.021-0.007c-0.006-0.004-0.008-0.015-0.008-0.022V94.97c0-0.008-0.002-0.014-0.01-0.021
			c-0.008-0.009-0.062-0.062-0.09-0.09v-6.075c0,0,0-0.009,0-0.024c0-0.02,0.018-0.018,0.018-0.018c0.002,0,0.021,0,0.021,0
			c0.023,0,0.025-0.019,0.025-0.04c0-0.024,0-0.086,0-0.121c0-0.034,0.006-0.107,0.02-0.132c0.014-0.021,0.01-0.046-0.029-0.046
			c-0.002,0-0.047,0-0.051,0c-0.047,0-0.053-0.053-0.031-0.07c0.152-0.124,0.168-0.34,0.168-0.381c0-0.037-0.002-0.07,0.037-0.07
			L1226.734,87.879z"/>
		<path fill="#FFFFFF" d="M1223.169,87.879c0.014,0,0.025-0.009,0.025-0.024v-0.276c0-0.015-0.014-0.002-0.025-0.002h-1.652
			c-0.014,0-0.023-0.013-0.023,0.002v0.276c0,0.016,0.01,0.024,0.023,0.024l0.07,0.001c0.033,0,0.035,0.033,0.035,0.064
			c0,0.042,0.02,0.257,0.17,0.387c0.02,0.019,0.012,0.07-0.031,0.07c-0.004,0-0.049,0-0.053,0c-0.037,0-0.039,0.025-0.027,0.045
			c0.014,0.025,0.016,0.099,0.016,0.133c0,0.035,0,0.096,0,0.121c0,0.021,0.002,0.04,0.025,0.04h0.023c0,0,0.018-0.003,0.018,0.018
			c0,0.016,0,0.024,0,0.024v6.075c-0.018,0.02-0.082,0.084-0.088,0.088c-0.006,0.006-0.01,0.014-0.01,0.022v0.103
			c0,0.008-0.002,0.019-0.006,0.022c-0.006,0.005-0.018,0.007-0.023,0.007h-0.076c-0.014,0-0.025,0.012-0.025,0.025
			c0,0,0,0.169,0,0.176h1.617c0-0.006,0-0.176,0-0.176c0-0.014-0.01-0.025-0.023-0.025h-0.078c-0.008,0-0.018-0.002-0.02-0.007
			c-0.008-0.004-0.01-0.015-0.01-0.022V94.97c0-0.008-0.002-0.014-0.008-0.021c-0.01-0.009-0.062-0.062-0.09-0.09v-6.075
			c0,0,0-0.009,0-0.024c0-0.02,0.016-0.018,0.016-0.018c0.002,0,0.021,0,0.021,0c0.023,0,0.027-0.019,0.027-0.04
			c0-0.024,0-0.086,0-0.121c0-0.034,0.004-0.107,0.02-0.132c0.01-0.021,0.008-0.046-0.029-0.046c-0.004,0-0.047,0-0.051,0
			c-0.049,0-0.053-0.053-0.031-0.07c0.15-0.124,0.166-0.34,0.166-0.381c0-0.037-0.002-0.07,0.039-0.07L1223.169,87.879z"/>
		<g>
			<path fill="#FFFFFF" d="M1236.312,81.444c0,0-0.135,0-0.17,0c-0.045,0-0.043-0.036-0.043-0.036s0-0.146,0-0.184
				c0-0.047-0.047-0.047-0.047-0.047s-0.125,0-0.166,0c-0.047,0-0.045-0.042-0.045-0.042v-0.169c0,0,0-0.037-0.043-0.037
				c-0.016,0-0.072,0-0.1,0c-0.035,0-0.072-0.029-0.074-0.078c-0.006-0.23,0.074-1.86-0.787-3.042
				c-0.678-1.014-1.611-1.527-2.127-1.768c-0.01-0.221-0.322-0.304-0.459-0.352c-0.072-0.023-0.135-0.053-0.135-0.116
				c0-0.004-0.002-0.072-0.002-0.075c0-0.068,0.061-0.097,0.156-0.094c0.027,0.002,0.051-0.023,0.051-0.043v-0.197
				c0-0.028-0.025-0.061-0.066-0.061c-0.068,0-0.146,0-0.186,0c-0.045,0-0.066-0.041-0.066-0.064c0-0.04,0-0.022,0-0.1
				c0-0.058-0.045-0.091-0.08-0.107v-1.217c0-0.041,0.031-0.036,0.059-0.036c0.004,0,0.01,0,0.014-0.001H1232
				c0.016,0,0.029-0.015,0.029-0.03v-0.116c0-0.017-0.014-0.029-0.029-0.029h-0.055c-0.02-0.009-0.033-0.033-0.033-0.089
				s0.018-0.083,0.041-0.087H1232c0.016,0,0.029-0.013,0.029-0.028V73.08c0-0.016-0.014-0.028-0.029-0.028h-0.061
				c-0.027-0.004-0.049-0.016-0.074-0.037c-0.207-0.164-0.416-0.399-0.416-0.436c0-0.02,0-0.021,0-0.044
				c0-0.025-0.025-0.074-0.082-0.074s-0.047-0.058-0.02-0.058c0.021,0,0.023-0.005,0.023-0.032c0-0.018,0-0.047,0-0.079
				c0-0.035-0.105-0.183-0.105-0.183h-0.008c0,0-0.105,0.146-0.105,0.183c0,0.032,0,0.062,0,0.079c0,0.026,0.008,0.032,0.023,0.032
				c0.029,0,0.037,0.058-0.016,0.058c-0.057,0-0.082,0.049-0.082,0.074c0,0.022-0.002,0.024-0.002,0.044
				c0,0.035-0.209,0.271-0.416,0.436c-0.027,0.021-0.047,0.033-0.074,0.037h-0.061c-0.018,0-0.029,0.013-0.029,0.028v0.118
				c0,0.016,0.014,0.028,0.029,0.028h0.049c0.02,0.005,0.039,0.031,0.039,0.087s-0.016,0.08-0.033,0.089h-0.057
				c-0.016,0-0.027,0.013-0.027,0.029v0.116c0,0.016,0.014,0.03,0.027,0.03h0.006c0.006,0.001,0.01,0.001,0.014,0.001
				c0.027,0,0.061-0.005,0.061,0.036v1.217c-0.035,0.017-0.082,0.05-0.082,0.107c0,0.077,0,0.06,0,0.1
				c0,0.024-0.021,0.064-0.066,0.064c-0.039,0-0.119,0-0.186,0c-0.041,0-0.068,0.032-0.068,0.061v0.197
				c0,0.02,0.023,0.045,0.051,0.043c0.094-0.003,0.158,0.024,0.158,0.094c0,0.003-0.002,0.071-0.002,0.075
				c0,0.063-0.064,0.093-0.135,0.116c-0.137,0.047-0.449,0.131-0.457,0.352c-0.518,0.239-1.453,0.754-2.127,1.768
				c-0.863,1.18-0.781,2.812-0.789,3.042c-0.002,0.048-0.037,0.078-0.074,0.078c-0.025,0-0.084,0-0.1,0
				c-0.043,0-0.043,0.037-0.043,0.037v0.169c0,0,0.002,0.042-0.043,0.042c-0.043,0-0.17,0-0.17,0s-0.043,0-0.043,0.047
				c0,0.037,0,0.184,0,0.184s0.002,0.036-0.047,0.036c-0.033,0-0.17,0-0.17,0s-0.047,0-0.047,0.049c0,0.027,0,0.137,0,0.196
				c0,0.022,0.014,0.026,0.029,0.028c0.051,0.007,0.152,0.053,0.152,0.166c0,0.192,0.117,0.211,0.164,0.211v0.709
				c0,0.166-0.129,0.23-0.201,0.248c-0.016,0.002-0.033,0.02-0.033,0.04c0,0.019,0,0.729,0,0.729l4.982-1.1h0.008l4.984,1.1
				c0,0,0-0.712,0-0.729c0-0.021-0.02-0.037-0.037-0.04c-0.072-0.018-0.199-0.083-0.199-0.248v-0.709
				c0.049,0,0.164-0.019,0.164-0.211c0-0.112,0.105-0.159,0.152-0.166c0.018-0.002,0.031-0.006,0.031-0.028c0-0.06,0-0.169,0-0.196
				C1236.361,81.444,1236.312,81.444,1236.312,81.444z"/>
		</g>
		<polygon fill="#FFFFFF" points="1241.826,97.375 1241.826,95.918 1240.974,95.918 1240.974,95.282 1221.535,95.282 
			1221.535,95.917 1220.681,95.917 1220.681,97.373 1219.824,97.373 1219.824,98.845 1242.683,98.846 1242.683,97.375 		"/>
	</g>
</g>
</svg>
